REM MD5 df9d0cd10ca54f6c266193cb88018352
FILE "Photo Genic (Japan).bin" BINARY
  TRACK 01 MODE2/2352
    INDEX 01 00:00:00
  TRACK 02 AUDIO
    INDEX 00 12:42:05
    INDEX 01 12:44:05
  TRACK 03 AUDIO
    INDEX 00 17:33:58
    INDEX 01 17:35:58
REM LEADOUT 22:13:08
